<?xml version="1.0" encoding="utf-8"?>
<!-- Generator: Adobe Illustrator 17.0.0, SVG Export Plug-In . SVG Version: 6.00 Build 0)  -->
<!DOCTYPE svg PUBLIC "-//W3C//DTD SVG 1.1//EN" "http://www.w3.org/Graphics/SVG/1.1/DTD/svg11.dtd">
<svg version="1.1" id="图层_1" xmlns="http://www.w3.org/2000/svg" xmlns:xlink="http://www.w3.org/1999/xlink" x="0px" y="0px"
	 width="16px" height="16px" viewBox="0 0 16 16" enable-background="new 0 0 16 16" xml:space="preserve">
<path d="M5,1H1v4h4V1z M6,0L6,0v6H0V0H6z M2,2h2v2H2V2z M15,1h-4v4h4V1z M16,0L16,0v6h-6V0H16z M12,2h2v2h-2V2z M5,11H1v4h4V11z
	 M6,10L6,10v6H0v-6H6z M2,12h2v2H2V12z M7,0h1v1H7V0z M8,1h1v1H8V1z M7,2h1v1H7V2z M8,3h1v1H8V3z M7,4h1v1H7V4z M8,5h1v1H8V5z M7,6
	h1v1H7V6z M7,8h1v1H7V8z M8,9h1v1H8V9z M7,10h1v1H7V10z M8,11h1v1H8V11z M7,12h1v1H7V12z M8,13h1v1H8V13z M7,14h1v1H7V14z M8,15h1v1
	H8V15z M15,8h1v1h-1V8z M1,8h1v1H1V8z M2,7h1v1H2V7z M0,7h1v1H0V7z M4,7h1v1H4V7z M5,8h1v1H5V8z M6,7h1v1H6V7z M9,8h1v1H9V8z M10,7
	h1v1h-1V7z M11,8h1v1h-1V8z M12,7h1v1h-1V7z M13,8h1v1h-1V8z M14,7h1v1h-1V7z M15,10h1v1h-1V10z M9,10h1v1H9V10z M10,9h1v1h-1V9z
	 M11,10h1v1h-1V10z M13,10h1v1h-1V10z M14,9h1v1h-1V9z M15,12h1v1h-1V12z M9,12h1v1H9V12z M10,11h1v1h-1V11z M12,11h1v1h-1V11z
	 M13,12h1v1h-1V12z M14,11h1v1h-1V11z M15,14h1v1h-1V14z M10,13h1v1h-1V13z M11,14h1v1h-1V14z M12,13h1v1h-1V13z M13,14h1v1h-1V14z
	 M10,15h1v1h-1V15z M12,15h1v1h-1V15z M14,15h1v1h-1V15z"/>
</svg>
